<?xml version="1.0" standalone="no"?>
<!DOCTYPE svg PUBLIC "-//W3C//DTD SVG 20010904//EN"
 "http://www.w3.org/TR/2001/REC-SVG-20010904/DTD/svg10.dtd">
<svg version="1.0" xmlns="http://www.w3.org/2000/svg"
 width="600.000000pt" height="600.000000pt" viewBox="0 0 600.000000 600.000000"
 preserveAspectRatio="xMidYMid meet">
<metadata>
Created by potrace 1.14, written by Peter Selinger 2001-2017
</metadata>
<g transform="translate(0.000000,600.000000) scale(0.100000,-0.100000)"
fill="#000000" stroke="none">
<path d="M18 5568 c19 -33 192 -331 230 -398 23 -42 198 -343 223 -385 10 -16
26 -46 37 -65 28 -52 44 -79 221 -384 88 -153 161 -282 161 -287 0 -5 5 -9 10
-9 6 0 10 -5 10 -11 0 -6 22 -48 49 -93 27 -44 58 -97 68 -116 11 -19 77 -134
147 -254 69 -120 126 -221 126 -224 0 -3 6 -13 14 -21 7 -9 27 -41 43 -71 40
-74 220 -386 249 -432 13 -21 24 -40 24 -42 0 -2 19 -37 43 -78 24 -40 55 -93
69 -118 14 -25 64 -112 112 -193 47 -82 97 -167 110 -190 12 -23 91 -159 173
-302 149 -258 182 -314 212 -368 9 -16 21 -36 26 -45 6 -10 75 -130 154 -267
80 -138 210 -362 290 -500 79 -137 151 -262 159 -277 7 -16 17 -28 21 -28 4 0
70 109 147 242 76 132 151 262 166 287 15 25 31 53 35 61 4 8 26 47 48 85 23
39 53 90 67 115 14 25 57 99 95 165 39 66 81 140 95 165 14 25 79 138 145 251
66 114 123 213 127 220 3 8 14 28 24 44 10 17 30 50 44 75 14 25 65 113 113
195 48 83 99 170 113 195 14 25 73 128 132 230 58 102 117 205 131 230 13 25
28 49 32 55 9 12 106 177 146 250 16 28 137 239 271 470 133 231 253 440 267
465 14 25 29 50 33 55 4 6 18 28 30 50 32 58 364 635 389 675 11 19 24 42 28
50 3 8 17 32 30 53 27 43 56 93 88 152 24 44 155 270 187 323 l20 32 -3002 0
-3002 0 20 -32z"/>
</g>
</svg>
